<mxfile host="app.diagrams.net" agent="Mozilla/5.0 (Windows NT 10.0; Win64; x64) AppleWebKit/537.36 (KHTML, like Gecko) Chrome/133.0.0.0 Safari/537.36" version="26.0.13">
  <diagram name="Страница — 1" id="wJOi_hNvougATIbGOnZ0">
    <mxGraphModel dx="1354" dy="794" grid="1" gridSize="10" guides="1" tooltips="1" connect="1" arrows="1" fold="1" page="0" pageScale="1" pageWidth="827" pageHeight="1169" math="0" shadow="0">
      <root>
        <mxCell id="0" />
        <mxCell id="1" parent="0" />
        <mxCell id="ryxccn0aou97NWUcJHbZ-1" value="" style="rounded=0;whiteSpace=wrap;html=1;" parent="1" vertex="1">
          <mxGeometry x="320" y="160" width="80" height="40" as="geometry" />
        </mxCell>
        <mxCell id="ryxccn0aou97NWUcJHbZ-2" value="R&lt;sub&gt;3&lt;/sub&gt;" style="text;html=1;align=center;verticalAlign=middle;whiteSpace=wrap;rounded=0;" parent="1" vertex="1">
          <mxGeometry x="330" y="130" width="60" height="30" as="geometry" />
        </mxCell>
        <mxCell id="ryxccn0aou97NWUcJHbZ-3" value="" style="endArrow=none;html=1;rounded=0;entryX=0;entryY=0.5;entryDx=0;entryDy=0;" parent="1" target="ryxccn0aou97NWUcJHbZ-1" edge="1">
          <mxGeometry width="50" height="50" relative="1" as="geometry">
            <mxPoint x="40" y="180" as="sourcePoint" />
            <mxPoint x="420" y="230" as="targetPoint" />
          </mxGeometry>
        </mxCell>
        <mxCell id="ryxccn0aou97NWUcJHbZ-4" value="" style="endArrow=none;html=1;rounded=0;" parent="1" edge="1">
          <mxGeometry width="50" height="50" relative="1" as="geometry">
            <mxPoint x="40" y="280" as="sourcePoint" />
            <mxPoint x="40" y="180" as="targetPoint" />
          </mxGeometry>
        </mxCell>
        <mxCell id="ryxccn0aou97NWUcJHbZ-5" value="" style="endArrow=none;html=1;rounded=0;" parent="1" edge="1">
          <mxGeometry width="50" height="50" relative="1" as="geometry">
            <mxPoint x="680" y="280" as="sourcePoint" />
            <mxPoint x="680" y="180" as="targetPoint" />
          </mxGeometry>
        </mxCell>
        <mxCell id="ryxccn0aou97NWUcJHbZ-6" value="" style="endArrow=none;html=1;rounded=0;" parent="1" edge="1">
          <mxGeometry width="50" height="50" relative="1" as="geometry">
            <mxPoint x="40" y="280" as="sourcePoint" />
            <mxPoint x="40" y="280" as="targetPoint" />
          </mxGeometry>
        </mxCell>
        <mxCell id="ryxccn0aou97NWUcJHbZ-8" value="" style="endArrow=none;html=1;rounded=0;" parent="1" edge="1">
          <mxGeometry width="50" height="50" relative="1" as="geometry">
            <mxPoint x="680" y="280" as="sourcePoint" />
            <mxPoint x="680" y="280" as="targetPoint" />
          </mxGeometry>
        </mxCell>
        <mxCell id="ryxccn0aou97NWUcJHbZ-10" value="" style="endArrow=none;html=1;rounded=0;entryX=0.826;entryY=0.585;entryDx=0;entryDy=0;entryPerimeter=0;exitX=0.536;exitY=0.904;exitDx=0;exitDy=0;exitPerimeter=0;" parent="1" edge="1">
          <mxGeometry width="50" height="50" relative="1" as="geometry">
            <mxPoint x="40" y="280" as="sourcePoint" />
            <mxPoint x="40" y="280" as="targetPoint" />
          </mxGeometry>
        </mxCell>
        <mxCell id="ryxccn0aou97NWUcJHbZ-11" value="" style="rounded=0;whiteSpace=wrap;html=1;" parent="1" vertex="1">
          <mxGeometry x="180" y="260" width="80" height="40" as="geometry" />
        </mxCell>
        <mxCell id="ryxccn0aou97NWUcJHbZ-12" value="" style="rounded=0;whiteSpace=wrap;html=1;" parent="1" vertex="1">
          <mxGeometry x="500" y="260" width="80" height="40" as="geometry" />
        </mxCell>
        <mxCell id="ryxccn0aou97NWUcJHbZ-13" value="" style="endArrow=none;html=1;rounded=0;exitX=0.826;exitY=0.904;exitDx=0;exitDy=0;exitPerimeter=0;entryX=0;entryY=0.5;entryDx=0;entryDy=0;" parent="1" target="ryxccn0aou97NWUcJHbZ-11" edge="1">
          <mxGeometry width="50" height="50" relative="1" as="geometry">
            <mxPoint x="40" y="280" as="sourcePoint" />
            <mxPoint x="380" y="310" as="targetPoint" />
          </mxGeometry>
        </mxCell>
        <mxCell id="ryxccn0aou97NWUcJHbZ-14" value="" style="endArrow=none;html=1;rounded=0;entryX=0.565;entryY=0.904;entryDx=0;entryDy=0;entryPerimeter=0;exitX=1;exitY=0.5;exitDx=0;exitDy=0;" parent="1" source="ryxccn0aou97NWUcJHbZ-12" edge="1">
          <mxGeometry width="50" height="50" relative="1" as="geometry">
            <mxPoint x="330" y="360" as="sourcePoint" />
            <mxPoint x="680" y="280" as="targetPoint" />
          </mxGeometry>
        </mxCell>
        <mxCell id="ryxccn0aou97NWUcJHbZ-15" value="" style="endArrow=none;html=1;rounded=0;exitX=1;exitY=0.5;exitDx=0;exitDy=0;" parent="1" source="ryxccn0aou97NWUcJHbZ-11" edge="1">
          <mxGeometry width="50" height="50" relative="1" as="geometry">
            <mxPoint x="330" y="360" as="sourcePoint" />
            <mxPoint x="360" y="280" as="targetPoint" />
          </mxGeometry>
        </mxCell>
        <mxCell id="ryxccn0aou97NWUcJHbZ-16" value="" style="endArrow=none;html=1;rounded=0;entryX=0;entryY=0.5;entryDx=0;entryDy=0;" parent="1" target="ryxccn0aou97NWUcJHbZ-12" edge="1">
          <mxGeometry width="50" height="50" relative="1" as="geometry">
            <mxPoint x="360" y="280" as="sourcePoint" />
            <mxPoint x="380" y="310" as="targetPoint" />
          </mxGeometry>
        </mxCell>
        <mxCell id="ryxccn0aou97NWUcJHbZ-17" value="" style="endArrow=none;html=1;rounded=0;entryDx=0;entryDy=0;" parent="1" edge="1">
          <mxGeometry width="50" height="50" relative="1" as="geometry">
            <mxPoint x="360" y="280" as="sourcePoint" />
            <mxPoint x="360" y="280" as="targetPoint" />
          </mxGeometry>
        </mxCell>
        <mxCell id="ryxccn0aou97NWUcJHbZ-19" value="R&lt;sub&gt;2&lt;/sub&gt;" style="text;html=1;align=center;verticalAlign=middle;whiteSpace=wrap;rounded=0;" parent="1" vertex="1">
          <mxGeometry x="150" y="230" width="60" height="30" as="geometry" />
        </mxCell>
        <mxCell id="ryxccn0aou97NWUcJHbZ-20" value="R&lt;sub&gt;456&lt;/sub&gt;" style="text;html=1;align=center;verticalAlign=middle;whiteSpace=wrap;rounded=0;" parent="1" vertex="1">
          <mxGeometry x="510" y="230" width="60" height="30" as="geometry" />
        </mxCell>
        <mxCell id="ryxccn0aou97NWUcJHbZ-36" value="" style="ellipse;whiteSpace=wrap;html=1;aspect=fixed;" parent="1" vertex="1">
          <mxGeometry x="530" y="150" width="60" height="60" as="geometry" />
        </mxCell>
        <mxCell id="ryxccn0aou97NWUcJHbZ-37" value="" style="endArrow=none;html=1;rounded=0;entryX=0;entryY=0.5;entryDx=0;entryDy=0;exitX=1;exitY=0.5;exitDx=0;exitDy=0;" parent="1" source="ryxccn0aou97NWUcJHbZ-1" target="ryxccn0aou97NWUcJHbZ-36" edge="1">
          <mxGeometry width="50" height="50" relative="1" as="geometry">
            <mxPoint x="320" y="420" as="sourcePoint" />
            <mxPoint x="370" y="370" as="targetPoint" />
          </mxGeometry>
        </mxCell>
        <mxCell id="ryxccn0aou97NWUcJHbZ-38" value="" style="endArrow=none;html=1;rounded=0;exitX=1;exitY=0.5;exitDx=0;exitDy=0;" parent="1" source="ryxccn0aou97NWUcJHbZ-36" edge="1">
          <mxGeometry width="50" height="50" relative="1" as="geometry">
            <mxPoint x="320" y="420" as="sourcePoint" />
            <mxPoint x="680" y="180" as="targetPoint" />
          </mxGeometry>
        </mxCell>
        <mxCell id="ryxccn0aou97NWUcJHbZ-42" value="" style="endArrow=classic;html=1;rounded=0;" parent="1" edge="1">
          <mxGeometry width="50" height="50" relative="1" as="geometry">
            <mxPoint x="545" y="179.57" as="sourcePoint" />
            <mxPoint x="575" y="179.57" as="targetPoint" />
          </mxGeometry>
        </mxCell>
        <mxCell id="ryxccn0aou97NWUcJHbZ-48" value="E&lt;sub&gt;3&lt;/sub&gt;" style="text;html=1;align=center;verticalAlign=middle;whiteSpace=wrap;rounded=0;" parent="1" vertex="1">
          <mxGeometry x="530" y="120" width="60" height="30" as="geometry" />
        </mxCell>
        <mxCell id="ryxccn0aou97NWUcJHbZ-84" value="" style="endArrow=classic;html=1;rounded=0;" parent="1" edge="1">
          <mxGeometry width="50" height="50" relative="1" as="geometry">
            <mxPoint x="430" y="180" as="sourcePoint" />
            <mxPoint x="500" y="180" as="targetPoint" />
          </mxGeometry>
        </mxCell>
        <mxCell id="ryxccn0aou97NWUcJHbZ-85" value="I&lt;sub&gt;3&lt;/sub&gt;" style="text;html=1;align=center;verticalAlign=middle;whiteSpace=wrap;rounded=0;" parent="1" vertex="1">
          <mxGeometry x="450" y="140" width="60" height="30" as="geometry" />
        </mxCell>
        <mxCell id="2KMF92D24dgkURb83jG1-7" value="" style="ellipse;whiteSpace=wrap;html=1;aspect=fixed;direction=west;rotation=120;" parent="1" vertex="1">
          <mxGeometry x="70" y="252.5" width="60" height="60" as="geometry" />
        </mxCell>
        <mxCell id="2KMF92D24dgkURb83jG1-8" value="" style="endArrow=classic;html=1;rounded=0;exitX=0.737;exitY=0.845;exitDx=0;exitDy=0;exitPerimeter=0;entryX=0.35;entryY=0.135;entryDx=0;entryDy=0;entryPerimeter=0;" parent="1" source="2KMF92D24dgkURb83jG1-7" target="2KMF92D24dgkURb83jG1-7" edge="1">
          <mxGeometry width="50" height="50" relative="1" as="geometry">
            <mxPoint x="99.82" y="287.5" as="sourcePoint" />
            <mxPoint x="80" y="283" as="targetPoint" />
          </mxGeometry>
        </mxCell>
        <mxCell id="2KMF92D24dgkURb83jG1-9" value="E&lt;span style=&quot;font-size: 10px;&quot;&gt;2&lt;/span&gt;" style="text;html=1;align=center;verticalAlign=middle;whiteSpace=wrap;rounded=0;" parent="1" vertex="1">
          <mxGeometry x="30" y="300" width="60" height="30" as="geometry" />
        </mxCell>
        <mxCell id="2KMF92D24dgkURb83jG1-16" value="" style="ellipse;whiteSpace=wrap;html=1;aspect=fixed;direction=west;rotation=120;" parent="1" vertex="1">
          <mxGeometry x="410" y="250" width="60" height="60" as="geometry" />
        </mxCell>
        <mxCell id="2KMF92D24dgkURb83jG1-17" value="" style="endArrow=classic;html=1;rounded=0;exitX=0.737;exitY=0.845;exitDx=0;exitDy=0;exitPerimeter=0;entryX=0.35;entryY=0.135;entryDx=0;entryDy=0;entryPerimeter=0;" parent="1" edge="1">
          <mxGeometry width="50" height="50" relative="1" as="geometry">
            <mxPoint x="464.2467258583378" y="280.59511875818527" as="sourcePoint" />
            <mxPoint x="415.7440436571209" y="279.4042286340601" as="targetPoint" />
          </mxGeometry>
        </mxCell>
        <mxCell id="2KMF92D24dgkURb83jG1-18" value="E&lt;sub&gt;1&lt;/sub&gt;" style="text;html=1;align=center;verticalAlign=middle;whiteSpace=wrap;rounded=0;" parent="1" vertex="1">
          <mxGeometry x="430" y="220" width="60" height="30" as="geometry" />
        </mxCell>
        <mxCell id="fGmVLcLxoqrnpn7QSTKQ-4" value="" style="endArrow=none;html=1;rounded=0;" edge="1" parent="1">
          <mxGeometry width="50" height="50" relative="1" as="geometry">
            <mxPoint x="70" y="1190" as="sourcePoint" />
            <mxPoint x="70" y="1190" as="targetPoint" />
          </mxGeometry>
        </mxCell>
        <mxCell id="fGmVLcLxoqrnpn7QSTKQ-8" value="" style="endArrow=none;html=1;rounded=0;entryX=0.826;entryY=0.585;entryDx=0;entryDy=0;entryPerimeter=0;exitX=0.536;exitY=0.904;exitDx=0;exitDy=0;exitPerimeter=0;" edge="1" parent="1">
          <mxGeometry width="50" height="50" relative="1" as="geometry">
            <mxPoint x="70" y="1190" as="sourcePoint" />
            <mxPoint x="70" y="1190" as="targetPoint" />
          </mxGeometry>
        </mxCell>
        <mxCell id="fGmVLcLxoqrnpn7QSTKQ-11" value="" style="endArrow=none;html=1;rounded=0;exitX=0.826;exitY=0.904;exitDx=0;exitDy=0;exitPerimeter=0;entryX=0;entryY=0.5;entryDx=0;entryDy=0;" edge="1" parent="1">
          <mxGeometry width="50" height="50" relative="1" as="geometry">
            <mxPoint x="70" y="1190" as="sourcePoint" />
            <mxPoint x="170" y="1190" as="targetPoint" />
          </mxGeometry>
        </mxCell>
        <mxCell id="fGmVLcLxoqrnpn7QSTKQ-13" value="" style="endArrow=none;html=1;rounded=0;" edge="1" parent="1">
          <mxGeometry width="50" height="50" relative="1" as="geometry">
            <mxPoint x="170" y="1190" as="sourcePoint" />
            <mxPoint x="390" y="1190" as="targetPoint" />
          </mxGeometry>
        </mxCell>
        <mxCell id="fGmVLcLxoqrnpn7QSTKQ-15" value="" style="endArrow=none;html=1;rounded=0;entryDx=0;entryDy=0;" edge="1" parent="1" target="fGmVLcLxoqrnpn7QSTKQ-16">
          <mxGeometry width="50" height="50" relative="1" as="geometry">
            <mxPoint x="390" y="1190" as="sourcePoint" />
            <mxPoint x="530" y="1190" as="targetPoint" />
          </mxGeometry>
        </mxCell>
        <mxCell id="fGmVLcLxoqrnpn7QSTKQ-16" value="" style="shape=waypoint;sketch=0;fillStyle=solid;size=6;pointerEvents=1;points=[];fillColor=none;resizable=0;rotatable=0;perimeter=centerPerimeter;snapToPoint=1;" vertex="1" parent="1">
          <mxGeometry x="380" y="1180" width="20" height="20" as="geometry" />
        </mxCell>
        <mxCell id="fGmVLcLxoqrnpn7QSTKQ-19" value="" style="rounded=0;whiteSpace=wrap;html=1;rotation=90;" vertex="1" parent="1">
          <mxGeometry x="350" y="1300" width="80" height="40" as="geometry" />
        </mxCell>
        <mxCell id="fGmVLcLxoqrnpn7QSTKQ-20" value="" style="endArrow=none;html=1;rounded=0;entryX=0.565;entryY=0.73;entryDx=0;entryDy=0;entryPerimeter=0;exitX=0;exitY=0.5;exitDx=0;exitDy=0;" edge="1" parent="1" source="fGmVLcLxoqrnpn7QSTKQ-19" target="fGmVLcLxoqrnpn7QSTKQ-16">
          <mxGeometry width="50" height="50" relative="1" as="geometry">
            <mxPoint x="360" y="1290" as="sourcePoint" />
            <mxPoint x="410" y="1240" as="targetPoint" />
          </mxGeometry>
        </mxCell>
        <mxCell id="fGmVLcLxoqrnpn7QSTKQ-24" value="" style="endArrow=none;html=1;rounded=0;entryX=0.473;entryY=0.363;entryDx=0;entryDy=0;entryPerimeter=0;exitX=0;exitY=0.5;exitDx=0;exitDy=0;" edge="1" parent="1" source="fGmVLcLxoqrnpn7QSTKQ-71">
          <mxGeometry width="50" height="50" relative="1" as="geometry">
            <mxPoint x="70" y="1270" as="sourcePoint" />
            <mxPoint x="70" y="1190" as="targetPoint" />
          </mxGeometry>
        </mxCell>
        <mxCell id="fGmVLcLxoqrnpn7QSTKQ-25" value="" style="endArrow=none;html=1;rounded=0;entryX=0.5;entryY=1;entryDx=0;entryDy=0;" edge="1" parent="1">
          <mxGeometry width="50" height="50" relative="1" as="geometry">
            <mxPoint x="70" y="1590" as="sourcePoint" />
            <mxPoint x="70" y="1500" as="targetPoint" />
          </mxGeometry>
        </mxCell>
        <mxCell id="fGmVLcLxoqrnpn7QSTKQ-26" value="" style="endArrow=none;html=1;rounded=0;" edge="1" parent="1">
          <mxGeometry width="50" height="50" relative="1" as="geometry">
            <mxPoint x="70" y="1590" as="sourcePoint" />
            <mxPoint x="390" y="1590" as="targetPoint" />
          </mxGeometry>
        </mxCell>
        <mxCell id="fGmVLcLxoqrnpn7QSTKQ-29" value="" style="endArrow=none;html=1;rounded=0;entryX=1;entryY=0.5;entryDx=0;entryDy=0;" edge="1" parent="1" target="fGmVLcLxoqrnpn7QSTKQ-19">
          <mxGeometry width="50" height="50" relative="1" as="geometry">
            <mxPoint x="390" y="1590" as="sourcePoint" />
            <mxPoint x="400" y="1440" as="targetPoint" />
          </mxGeometry>
        </mxCell>
        <mxCell id="fGmVLcLxoqrnpn7QSTKQ-30" value="" style="endArrow=none;html=1;rounded=0;entryDx=0;entryDy=0;" edge="1" parent="1">
          <mxGeometry width="50" height="50" relative="1" as="geometry">
            <mxPoint x="390" y="1590" as="sourcePoint" />
            <mxPoint x="390" y="1590" as="targetPoint" />
          </mxGeometry>
        </mxCell>
        <mxCell id="fGmVLcLxoqrnpn7QSTKQ-35" value="R&lt;sub&gt;4&lt;/sub&gt;" style="text;html=1;align=center;verticalAlign=middle;whiteSpace=wrap;rounded=0;" vertex="1" parent="1">
          <mxGeometry x="400" y="1300" width="60" height="30" as="geometry" />
        </mxCell>
        <mxCell id="fGmVLcLxoqrnpn7QSTKQ-43" value="" style="endArrow=classic;html=1;rounded=0;" edge="1" parent="1">
          <mxGeometry width="50" height="50" relative="1" as="geometry">
            <mxPoint x="390" y="1500" as="sourcePoint" />
            <mxPoint x="390" y="1420" as="targetPoint" />
          </mxGeometry>
        </mxCell>
        <mxCell id="fGmVLcLxoqrnpn7QSTKQ-44" value="I&lt;sub&gt;4&lt;/sub&gt;" style="text;html=1;align=center;verticalAlign=middle;whiteSpace=wrap;rounded=0;" vertex="1" parent="1">
          <mxGeometry x="380" y="1410" width="60" height="30" as="geometry" />
        </mxCell>
        <mxCell id="fGmVLcLxoqrnpn7QSTKQ-71" value="" style="rounded=0;whiteSpace=wrap;html=1;direction=south;" vertex="1" parent="1">
          <mxGeometry x="50" y="1275" width="40" height="80" as="geometry" />
        </mxCell>
        <mxCell id="fGmVLcLxoqrnpn7QSTKQ-72" value="" style="endArrow=none;html=1;rounded=0;exitX=1;exitY=0.5;exitDx=0;exitDy=0;" edge="1" parent="1" source="fGmVLcLxoqrnpn7QSTKQ-71">
          <mxGeometry width="50" height="50" relative="1" as="geometry">
            <mxPoint x="130" y="1370" as="sourcePoint" />
            <mxPoint x="70" y="1500" as="targetPoint" />
          </mxGeometry>
        </mxCell>
        <mxCell id="fGmVLcLxoqrnpn7QSTKQ-73" value="Rэ" style="text;html=1;align=center;verticalAlign=middle;whiteSpace=wrap;rounded=0;" vertex="1" parent="1">
          <mxGeometry x="80" y="1270" width="60" height="30" as="geometry" />
        </mxCell>
        <mxCell id="fGmVLcLxoqrnpn7QSTKQ-76" value="" style="ellipse;whiteSpace=wrap;html=1;aspect=fixed;" vertex="1" parent="1">
          <mxGeometry x="360" y="1470" width="60" height="60" as="geometry" />
        </mxCell>
        <mxCell id="fGmVLcLxoqrnpn7QSTKQ-77" value="" style="endArrow=classic;html=1;rounded=0;" edge="1" parent="1">
          <mxGeometry width="50" height="50" relative="1" as="geometry">
            <mxPoint x="390" y="1490" as="sourcePoint" />
            <mxPoint x="390" y="1510" as="targetPoint" />
          </mxGeometry>
        </mxCell>
        <mxCell id="fGmVLcLxoqrnpn7QSTKQ-78" value="E4" style="text;html=1;align=center;verticalAlign=middle;whiteSpace=wrap;rounded=0;" vertex="1" parent="1">
          <mxGeometry x="407.5" y="1485" width="60" height="30" as="geometry" />
        </mxCell>
        <mxCell id="fGmVLcLxoqrnpn7QSTKQ-80" value="" style="endArrow=none;html=1;rounded=0;fontSize=12;startSize=8;endSize=8;curved=1;" edge="1" parent="1">
          <mxGeometry width="50" height="50" relative="1" as="geometry">
            <mxPoint x="360" y="1190" as="sourcePoint" />
            <mxPoint x="360" y="1190" as="targetPoint" />
          </mxGeometry>
        </mxCell>
        <mxCell id="fGmVLcLxoqrnpn7QSTKQ-96" value="" style="ellipse;whiteSpace=wrap;html=1;aspect=fixed;" vertex="1" parent="1">
          <mxGeometry x="90" y="1162.5" width="60" height="60" as="geometry" />
        </mxCell>
        <mxCell id="fGmVLcLxoqrnpn7QSTKQ-97" value="" style="endArrow=classic;html=1;rounded=0;entryX=1.036;entryY=0.47;entryDx=0;entryDy=0;entryPerimeter=0;" edge="1" parent="1">
          <mxGeometry width="50" height="50" relative="1" as="geometry">
            <mxPoint x="106.34000000000003" y="1190" as="sourcePoint" />
            <mxPoint x="135.9999999999999" y="1190.7" as="targetPoint" />
          </mxGeometry>
        </mxCell>
        <mxCell id="fGmVLcLxoqrnpn7QSTKQ-98" value="E&lt;span style=&quot;font-size: 10px;&quot;&gt;э&lt;/span&gt;" style="text;html=1;align=center;verticalAlign=middle;whiteSpace=wrap;rounded=0;" vertex="1" parent="1">
          <mxGeometry x="100" y="1130" width="60" height="30" as="geometry" />
        </mxCell>
      </root>
    </mxGraphModel>
  </diagram>
</mxfile>
